<?xml version="1.0" encoding="UTF-8"?>
<svg id="Layer_1" data-name="Layer 1" xmlns="http://www.w3.org/2000/svg" viewBox="0 0 841.89 680.67">
  <defs>
    <style>
      .cls-1 {
        stroke-width: 0px;
      }
    </style>
  </defs>
  <g>
    <rect class="cls-1" x="418.57" y="125.11" width="4.93" height="492.84" transform="translate(792.56 -49.5) rotate(90)"/>
    <g>
      <path class="cls-1" d="M187.55,423.24c-1.94,0-3.68-.32-5.23-.97-1.55-.65-2.86-1.58-3.94-2.79-1.08-1.21-1.91-2.69-2.49-4.43s-.87-3.7-.87-5.87.29-4.13.87-5.86c.58-1.73,1.41-3.21,2.49-4.42,1.08-1.21,2.4-2.14,3.94-2.79,1.55-.65,3.29-.97,5.23-.97,1.58,0,3.06.25,4.43.75,1.37.5,2.57,1.19,3.59,2.08,1.02.89,1.85,1.94,2.48,3.17.63,1.22.99,2.56,1.09,4.02h-5.44c-.14-.77-.38-1.46-.74-2.09-.36-.63-.81-1.17-1.34-1.61-.54-.44-1.15-.79-1.84-1.03-.69-.24-1.43-.36-2.22-.36-1.05,0-1.99.21-2.83.63-.84.42-1.56,1.02-2.15,1.81-.59.79-1.05,1.75-1.36,2.87-.31,1.12-.47,2.39-.47,3.8s.16,2.68.47,3.81c.31,1.13.77,2.09,1.36,2.87.59.78,1.31,1.39,2.15,1.81.84.43,1.79.64,2.85.64.8,0,1.55-.11,2.24-.34.69-.23,1.3-.55,1.83-.97.53-.42.98-.93,1.33-1.52.36-.59.6-1.26.74-2h5.44c-.11,1.44-.48,2.77-1.1,3.96-.62,1.2-1.44,2.23-2.46,3.08-1.02.86-2.21,1.52-3.58,2s-2.86.71-4.46.71Z"/>
      <path class="cls-1" d="M224.29,422.56h-17.7v-26.72h17.7v4.78h-12.11v6.24h11.43v4.43h-11.43v6.5h12.11v4.78Z"/>
      <path class="cls-1" d="M232.45,422.56v-26.72h4.67l12.3,16.65h.33v-16.65h5.35v26.72h-4.63l-12.33-16.72h-.33v16.72h-5.35Z"/>
      <path class="cls-1" d="M270.34,422.56v-21.95h-8.02v-4.78h21.63v4.78h-8.02v21.95h-5.59Z"/>
      <path class="cls-1" d="M296.77,422.56h-5.59v-26.72h11.22c1.47,0,2.79.2,3.96.59,1.17.4,2.17.96,2.98,1.7s1.44,1.64,1.88,2.69c.44,1.06.66,2.25.66,3.58,0,.85-.11,1.67-.32,2.45-.22.78-.53,1.51-.94,2.17-.41.66-.92,1.24-1.53,1.75-.6.51-1.29.91-2.06,1.22l5.63,10.56h-6.33l-4.98-9.69h-4.57v9.69ZM296.77,408.58h4.91c1.42,0,2.52-.36,3.3-1.07.78-.72,1.17-1.72,1.17-3.02,0-.63-.11-1.2-.31-1.71-.21-.51-.51-.95-.9-1.31-.39-.36-.86-.63-1.43-.82-.56-.19-1.19-.29-1.88-.29h-4.85v8.22Z"/>
      <path class="cls-1" d="M337.49,422.56h-17.7v-26.72h17.7v4.78h-12.11v6.24h11.43v4.43h-11.43v6.5h12.11v4.78Z"/>
      <path class="cls-1" d="M357.71,422.56v-26.72h17.5v4.78h-11.91v6.96h10.87v4.57h-10.87v10.41h-5.59Z"/>
      <path class="cls-1" d="M394.34,395.15c1.98,0,3.75.33,5.33.98,1.58.65,2.93,1.59,4.04,2.8s1.97,2.68,2.57,4.42c.6,1.73.9,3.68.9,5.84s-.3,4.13-.89,5.86c-.59,1.73-1.44,3.21-2.56,4.42-1.11,1.21-2.46,2.14-4.05,2.8-1.59.65-3.37.98-5.34.98s-3.78-.33-5.36-.98c-1.59-.65-2.94-1.59-4.05-2.8-1.11-1.21-1.97-2.68-2.57-4.42-.6-1.73-.9-3.69-.9-5.86s.3-4.11.91-5.84c.6-1.73,1.47-3.21,2.58-4.43,1.12-1.22,2.47-2.15,4.06-2.8,1.59-.65,3.36-.97,5.32-.97ZM394.34,400.06c-1.09,0-2.07.21-2.94.64-.88.43-1.63,1.03-2.25,1.82-.62.79-1.11,1.75-1.44,2.88-.34,1.13-.51,2.39-.51,3.79s.17,2.65.5,3.78c.33,1.12.81,2.08,1.43,2.88.62.8,1.37,1.41,2.25,1.84.88.43,1.87.65,2.97.65s2.07-.22,2.94-.65c.88-.43,1.63-1.05,2.25-1.84.62-.8,1.1-1.76,1.44-2.88.33-1.12.5-2.38.5-3.78s-.17-2.66-.5-3.79c-.33-1.13-.81-2.09-1.44-2.88-.62-.79-1.37-1.4-2.25-1.82-.88-.43-1.86-.64-2.94-.64Z"/>
      <path class="cls-1" d="M420.34,422.56h-5.59v-26.72h11.22c1.47,0,2.79.2,3.96.59,1.17.4,2.17.96,2.98,1.7.81.74,1.44,1.64,1.88,2.69.44,1.06.66,2.25.66,3.58,0,.85-.11,1.67-.32,2.45-.22.78-.53,1.51-.94,2.17-.41.66-.92,1.24-1.53,1.75-.6.51-1.29.91-2.06,1.22l5.63,10.56h-6.33l-4.98-9.69h-4.57v9.69ZM420.34,408.58h4.91c1.42,0,2.52-.36,3.3-1.07.78-.72,1.17-1.72,1.17-3.02,0-.63-.11-1.2-.31-1.71-.21-.51-.51-.95-.9-1.31-.39-.36-.86-.63-1.43-.82-.56-.19-1.19-.29-1.88-.29h-4.85v8.22Z"/>
      <path class="cls-1" d="M473.63,425.17l-1.85-2.63c-1.43.47-2.99.7-4.69.7-1.98,0-3.76-.32-5.34-.97-1.59-.65-2.94-1.58-4.06-2.79-1.12-1.21-1.98-2.68-2.57-4.42-.6-1.73-.9-3.69-.9-5.88s.3-4.11.91-5.84c.6-1.73,1.47-3.21,2.58-4.43,1.12-1.22,2.47-2.15,4.06-2.8,1.59-.65,3.36-.97,5.32-.97s3.73.32,5.32.97c1.58.65,2.93,1.58,4.05,2.8,1.12,1.22,1.98,2.69,2.57,4.43.6,1.73.9,3.68.9,5.84,0,2.41-.36,4.54-1.08,6.41-.72,1.86-1.76,3.38-3.12,4.54l3.32,5.04h-5.41ZM467.11,418.34c.33,0,.66-.02.97-.07.31-.04.63-.1.95-.18l-3.04-4.44h5.07l1.24,1.5c.62-.67,1.09-1.5,1.42-2.51.33-1.01.49-2.16.49-3.45,0-1.39-.17-2.66-.51-3.79-.34-1.13-.82-2.09-1.44-2.88-.62-.79-1.37-1.4-2.25-1.82-.88-.43-1.86-.64-2.94-.64s-2.07.21-2.94.64c-.88.43-1.63,1.03-2.25,1.82-.62.79-1.11,1.75-1.44,2.88-.34,1.13-.51,2.39-.51,3.79s.17,2.68.51,3.81c.34,1.13.82,2.09,1.44,2.88.62.79,1.37,1.4,2.25,1.82.88.43,1.87.64,2.97.64Z"/>
      <path class="cls-1" d="M493.15,412.76c0,.84.12,1.6.37,2.28.25.68.61,1.26,1.08,1.74.48.48,1.06.85,1.76,1.11.7.26,1.49.39,2.38.39s1.7-.13,2.4-.39c.7-.26,1.28-.63,1.76-1.11.48-.48.84-1.06,1.08-1.74.25-.68.37-1.44.37-2.28v-16.93h5.59v17.5c0,1.48-.26,2.83-.79,4.05-.52,1.22-1.28,2.26-2.25,3.13-.98.87-2.15,1.54-3.53,2.02-1.38.48-2.92.71-4.64.71s-3.25-.24-4.63-.71c-1.38-.48-2.56-1.15-3.53-2.02-.97-.87-1.72-1.91-2.24-3.13-.52-1.22-.79-2.56-.79-4.05v-17.5h5.59v16.93Z"/>
      <path class="cls-1" d="M533.89,416.19h-9.39l-2.06,6.37h-5.61l9.28-26.72h6.57l9.28,26.72h-6.06l-2.02-6.37ZM525.71,411.87h7l-3.32-10.48h-.33l-3.35,10.48Z"/>
      <path class="cls-1" d="M548.8,422.56v-26.72h4.67l12.3,16.65h.33v-16.65h5.35v26.72h-4.63l-12.33-16.72h-.33v16.72h-5.35Z"/>
      <path class="cls-1" d="M586.69,422.56v-21.95h-8.02v-4.78h21.63v4.78h-8.02v21.95h-5.59Z"/>
      <path class="cls-1" d="M613.17,412.76c0,.84.12,1.6.37,2.28.25.68.61,1.26,1.08,1.74.48.48,1.06.85,1.76,1.11.7.26,1.49.39,2.38.39s1.7-.13,2.4-.39c.7-.26,1.28-.63,1.76-1.11.48-.48.84-1.06,1.08-1.74.25-.68.37-1.44.37-2.28v-16.93h5.59v17.5c0,1.48-.26,2.83-.79,4.05-.52,1.22-1.28,2.26-2.25,3.13-.98.87-2.15,1.54-3.53,2.02-1.38.48-2.92.71-4.64.71s-3.25-.24-4.63-.71c-1.38-.48-2.56-1.15-3.53-2.02-.97-.87-1.72-1.91-2.24-3.13-.52-1.22-.79-2.56-.79-4.05v-17.5h5.59v16.93Z"/>
      <path class="cls-1" d="M638.76,422.56v-26.72h6.59l7.39,17.96h.33l7.41-17.96h6.57v26.72h-5.19v-17.87h-.3l-6.8,16.33h-3.72l-6.82-16.33h-.3v17.87h-5.19Z"/>
      <path class="cls-1" d="M266.02,471v-21.95h-8.02v-4.78h21.63v4.78h-8.02v21.95h-5.59Z"/>
      <path class="cls-1" d="M304.56,471h-17.7v-26.72h17.7v4.78h-12.11v6.24h11.43v4.43h-11.43v6.5h12.11v4.78Z"/>
      <path class="cls-1" d="M324.08,471.69c-1.94,0-3.68-.32-5.23-.97-1.55-.65-2.86-1.58-3.94-2.79-1.08-1.21-1.91-2.69-2.49-4.43-.58-1.74-.87-3.7-.87-5.87s.29-4.13.87-5.86c.58-1.73,1.41-3.21,2.49-4.42,1.08-1.21,2.4-2.14,3.94-2.79,1.55-.65,3.29-.97,5.23-.97,1.58,0,3.06.25,4.43.75,1.37.5,2.57,1.19,3.59,2.08,1.02.89,1.85,1.94,2.48,3.17.63,1.22.99,2.56,1.09,4.02h-5.44c-.14-.77-.38-1.46-.74-2.09-.36-.63-.81-1.17-1.34-1.61-.54-.44-1.15-.79-1.84-1.03-.69-.24-1.43-.36-2.22-.36-1.05,0-1.99.21-2.83.63-.84.42-1.56,1.02-2.15,1.81-.59.79-1.05,1.75-1.36,2.87-.31,1.12-.47,2.39-.47,3.8s.16,2.68.47,3.81c.31,1.13.77,2.09,1.36,2.87.59.78,1.31,1.39,2.15,1.81.84.43,1.79.64,2.85.64.8,0,1.55-.11,2.24-.34.69-.23,1.3-.55,1.83-.97.53-.42.98-.93,1.33-1.52.36-.59.6-1.26.74-2h5.44c-.11,1.44-.48,2.77-1.1,3.96-.62,1.2-1.44,2.23-2.46,3.08-1.02.86-2.21,1.52-3.58,2-1.37.48-2.86.71-4.46.71Z"/>
      <path class="cls-1" d="M360.75,471v-11.17h-12.04v11.17h-5.59v-26.72h5.59v10.78h12.04v-10.78h5.59v26.72h-5.59Z"/>
      <path class="cls-1" d="M375.1,471v-26.72h4.67l12.3,16.65h.33v-16.65h5.35v26.72h-4.63l-12.33-16.72h-.33v16.72h-5.35Z"/>
      <path class="cls-1" d="M418.19,443.6c1.98,0,3.75.33,5.33.98,1.58.65,2.93,1.59,4.04,2.8,1.11,1.21,1.97,2.68,2.57,4.42.6,1.73.9,3.68.9,5.84s-.3,4.13-.89,5.86c-.59,1.73-1.44,3.21-2.56,4.42-1.11,1.21-2.46,2.14-4.05,2.8-1.59.65-3.37.98-5.34.98s-3.78-.33-5.36-.98c-1.59-.65-2.94-1.59-4.05-2.8-1.11-1.21-1.97-2.68-2.57-4.42-.6-1.73-.9-3.69-.9-5.86s.3-4.11.91-5.84c.6-1.73,1.47-3.21,2.58-4.43,1.12-1.22,2.47-2.15,4.06-2.8,1.59-.65,3.36-.97,5.32-.97ZM418.19,448.5c-1.09,0-2.07.21-2.94.64-.88.43-1.63,1.03-2.25,1.82-.62.79-1.11,1.75-1.44,2.88-.34,1.13-.51,2.39-.51,3.79s.17,2.65.5,3.78c.33,1.12.81,2.08,1.43,2.88.62.8,1.37,1.41,2.25,1.84.88.43,1.87.65,2.97.65s2.07-.22,2.94-.65c.88-.43,1.63-1.05,2.25-1.84.62-.8,1.1-1.76,1.44-2.88.33-1.12.5-2.38.5-3.78s-.17-2.66-.5-3.79c-.33-1.13-.81-2.09-1.44-2.88-.62-.79-1.37-1.4-2.25-1.82-.88-.43-1.86-.64-2.94-.64Z"/>
      <path class="cls-1" d="M456.08,471h-17.48v-26.72h5.59v21.85h11.89v4.87Z"/>
      <path class="cls-1" d="M475.12,443.6c1.98,0,3.75.33,5.33.98,1.58.65,2.93,1.59,4.04,2.8,1.11,1.21,1.97,2.68,2.57,4.42.6,1.73.9,3.68.9,5.84s-.3,4.13-.89,5.86c-.59,1.73-1.44,3.21-2.56,4.42-1.11,1.21-2.46,2.14-4.05,2.8-1.59.65-3.37.98-5.34.98s-3.78-.33-5.36-.98c-1.59-.65-2.94-1.59-4.05-2.8-1.11-1.21-1.97-2.68-2.57-4.42-.6-1.73-.9-3.69-.9-5.86s.3-4.11.91-5.84c.6-1.73,1.47-3.21,2.58-4.43,1.12-1.22,2.47-2.15,4.06-2.8,1.59-.65,3.36-.97,5.32-.97ZM475.12,448.5c-1.09,0-2.07.21-2.94.64-.88.43-1.63,1.03-2.25,1.82-.62.79-1.11,1.75-1.44,2.88-.34,1.13-.51,2.39-.51,3.79s.17,2.65.5,3.78c.33,1.12.81,2.08,1.43,2.88.62.8,1.37,1.41,2.25,1.84.88.43,1.87.65,2.97.65s2.07-.22,2.94-.65c.88-.43,1.63-1.05,2.25-1.84.62-.8,1.1-1.76,1.44-2.88.33-1.12.5-2.38.5-3.78s-.17-2.66-.5-3.79c-.33-1.13-.81-2.09-1.44-2.88-.62-.79-1.37-1.4-2.25-1.82-.88-.43-1.86-.64-2.94-.64Z"/>
      <path class="cls-1" d="M518.18,464.93c-.55,1.43-1.34,2.65-2.36,3.65-1.03,1-2.27,1.77-3.73,2.31-1.46.54-3.11.81-4.94.81-1.99,0-3.77-.32-5.35-.97-1.58-.65-2.92-1.58-4.03-2.79-1.11-1.21-1.95-2.69-2.55-4.43-.59-1.74-.89-3.7-.89-5.89s.3-4.09.89-5.82c.59-1.73,1.44-3.21,2.54-4.42,1.1-1.21,2.43-2.14,3.99-2.8,1.56-.65,3.32-.98,5.27-.98,1.58,0,3.04.22,4.39.66,1.35.44,2.53,1.06,3.56,1.86,1.02.8,1.86,1.77,2.52,2.91.65,1.14,1.08,2.4,1.28,3.78h-5.56c-.42-1.36-1.16-2.41-2.23-3.16-1.07-.75-2.39-1.12-3.95-1.12-1.07,0-2.04.21-2.91.62-.86.41-1.6,1.01-2.19,1.79-.6.78-1.06,1.73-1.38,2.84-.32,1.12-.48,2.38-.48,3.79s.17,2.72.5,3.85c.33,1.14.81,2.1,1.44,2.9.62.8,1.38,1.4,2.27,1.82.89.42,1.88.63,2.98.63.91,0,1.75-.13,2.52-.39.77-.26,1.42-.62,1.97-1.09.55-.47.98-1.04,1.31-1.7.32-.67.49-1.4.52-2.2l.02-.48h-5.8v-4.2h11.22v3.41c0,1.79-.27,3.4-.82,4.83Z"/>
      <path class="cls-1" d="M526.63,471v-26.72h5.59v26.72h-5.59Z"/>
      <path class="cls-1" d="M558.69,471h-17.7v-26.72h17.7v4.78h-12.11v6.24h11.43v4.43h-11.43v6.5h12.11v4.78Z"/>
      <path class="cls-1" d="M571.06,463.58c.06.54.24,1.03.54,1.47.3.44.69.81,1.18,1.12.49.31,1.06.55,1.71.71.65.17,1.38.25,2.17.25.73,0,1.39-.08,2-.25.6-.17,1.13-.4,1.56-.7.44-.3.78-.66,1.03-1.08.25-.42.37-.88.37-1.39,0-.42-.09-.8-.26-1.15-.17-.35-.44-.65-.81-.93-.37-.27-.85-.52-1.44-.73-.59-.22-1.29-.41-2.1-.58l-3.48-.74c-4.84-1.01-7.26-3.56-7.26-7.63,0-1.26.24-2.4.73-3.43.49-1.02,1.18-1.9,2.06-2.64.89-.73,1.96-1.3,3.22-1.69,1.26-.39,2.66-.59,4.2-.59s2.82.2,4.06.59c1.23.4,2.3.95,3.2,1.66.9.71,1.61,1.56,2.13,2.55.52.99.8,2.07.83,3.26h-5.26c-.06-.53-.23-1.01-.5-1.44-.27-.43-.62-.8-1.05-1.11-.43-.31-.93-.55-1.5-.71-.57-.17-1.2-.25-1.88-.25s-1.34.08-1.91.23c-.57.15-1.06.38-1.46.67-.41.29-.72.64-.94,1.06-.22.41-.33.87-.33,1.38,0,.83.34,1.49,1.03,2,.69.51,1.81.93,3.38,1.26l3.22.69c1.35.28,2.5.65,3.47,1.08.97.44,1.77.97,2.39,1.58.62.62,1.08,1.33,1.38,2.15.3.81.44,1.74.44,2.78,0,1.35-.25,2.56-.75,3.63-.5,1.07-1.22,1.98-2.16,2.73-.94.75-2.07,1.32-3.41,1.72s-2.84.6-4.52.6-3.04-.19-4.33-.56c-1.3-.38-2.41-.92-3.33-1.62s-1.65-1.56-2.18-2.56c-.52-1-.81-2.12-.86-3.37h5.41Z"/>
    </g>
    <g>
      <path class="cls-1" d="M313.22,501.7c0,1.47-.53,2.63-1.58,3.49-1.06.86-2.47,1.29-4.23,1.29-2.36,0-4.29-.74-5.77-2.22l1.23-1.23c1.23,1.23,2.76,1.84,4.59,1.84,1.23,0,2.2-.28,2.91-.83.71-.55,1.06-1.32,1.06-2.29s-.27-1.63-.8-2.1c-.43-.38-1.16-.65-2.2-.8l-1.96-.31c-2.92-.46-4.37-1.93-4.37-4.42,0-1.43.48-2.58,1.45-3.45.97-.87,2.28-1.3,3.94-1.3,1.97,0,3.64.61,5.01,1.84l-1.16,1.16c-1.06-.96-2.36-1.44-3.92-1.44-1.1,0-1.97.28-2.6.85-.63.57-.95,1.32-.95,2.27,0,.85.26,1.5.78,1.95.52.45,1.27.75,2.25.91l1.84.28c1.37.2,2.4.6,3.07,1.18.95.8,1.42,1.91,1.42,3.33Z"/>
      <path class="cls-1" d="M332.93,506.34h-1.8v-16.83h1.8v16.83Z"/>
      <path class="cls-1" d="M364.42,506.34h-1.7l-8.94-13.5v13.5h-1.8v-16.83h1.7l8.94,13.45v-13.45h1.8v16.83Z"/>
      <path class="cls-1" d="M394.66,500.19c0,1.86-.48,3.31-1.44,4.35-1.2,1.29-2.7,1.94-4.49,1.94-1.7,0-3.14-.58-4.3-1.75-.73-.72-1.19-1.61-1.39-2.65-.13-.71-.19-2.1-.19-4.16s.06-3.45.19-4.16c.21-1.04.67-1.92,1.4-2.65,1.17-1.17,2.61-1.75,4.32-1.75,1.58,0,2.91.47,3.99,1.42,1.03.9,1.67,2.1,1.92,3.62h-1.81c-.24-1.07-.72-1.91-1.45-2.52-.73-.61-1.62-.91-2.66-.91-1.16,0-2.13.4-2.92,1.21-.51.52-.84,1.17-1,1.96-.13.68-.19,1.94-.19,3.78s.06,3.11.19,3.81c.16.79.49,1.44.99,1.96.77.79,1.74,1.18,2.91,1.18,1.34,0,2.4-.48,3.19-1.44.63-.76.95-1.77.95-3.05v-1.28h-4.14v-1.58h5.93v2.67Z"/>
      <path class="cls-1" d="M424.76,506.34h-1.91l-1.35-3.81h-7.35l-1.35,3.81h-1.91l6.19-16.83h1.51l6.17,16.83ZM420.97,500.97l-3.12-8.89-3.17,8.89h6.29Z"/>
      <path class="cls-1" d="M453.13,494.44c0,1.5-.48,2.7-1.44,3.61-.96.91-2.21,1.36-3.76,1.36h-4.47v6.93h-1.8v-16.83h6.26c1.54,0,2.8.45,3.76,1.35.96.9,1.44,2.1,1.44,3.59ZM451.33,494.44c0-1.09-.32-1.91-.97-2.48-.65-.57-1.51-.85-2.6-.85h-4.3v6.69h4.3c1.09,0,1.95-.29,2.6-.86.65-.58.97-1.41.97-2.49Z"/>
      <path class="cls-1" d="M481.87,497.92c0,2.06-.06,3.45-.19,4.16-.2,1.04-.67,1.92-1.39,2.65-1.17,1.17-2.6,1.75-4.3,1.75s-3.14-.58-4.3-1.75c-.73-.72-1.19-1.61-1.39-2.65-.13-.71-.19-2.1-.19-4.16s.06-3.45.19-4.16c.2-1.04.67-1.92,1.39-2.65,1.17-1.17,2.6-1.75,4.3-1.75s3.14.58,4.3,1.75c.72.73,1.19,1.61,1.39,2.65.13.71.19,2.1.19,4.16ZM480.08,497.92c0-1.84-.06-3.1-.19-3.78-.16-.79-.49-1.44-.99-1.96-.79-.8-1.76-1.21-2.91-1.21s-2.12.4-2.91,1.21c-.5.52-.84,1.17-.99,1.96-.13.68-.19,1.94-.19,3.78s.06,3.11.19,3.78c.16.79.49,1.44.99,1.96.79.8,1.76,1.21,2.91,1.21s2.12-.4,2.91-1.21c.5-.52.84-1.17.99-1.96.13-.68.19-1.94.19-3.78Z"/>
      <path class="cls-1" d="M512.06,506.34h-2.1l-3.83-7.47h-4.04v7.47h-1.8v-16.83h6.45c1.48,0,2.68.42,3.61,1.26.92.84,1.38,1.98,1.38,3.42,0,1.2-.33,2.19-.99,2.98-.66.79-1.55,1.3-2.67,1.54l4,7.64ZM509.94,494.21c0-.99-.31-1.76-.92-2.29-.61-.54-1.43-.8-2.43-.8h-4.49v6.17h4.49c1.02,0,1.84-.26,2.45-.79.61-.53.91-1.29.91-2.28Z"/>
      <path class="cls-1" d="M540.43,506.34h-10.45v-16.83h10.45v1.61h-8.65v5.93h7.38v1.61h-7.38v6.08h8.65v1.61Z"/>
    </g>
  </g>
  <g>
    <path class="cls-1" d="M316.46,341.77c-8.31-9.19-13.48-20.89-14.9-33.51h-69.16c-9.52,0-17.29-7.88-17.29-17.5v-58.31c0-9.62,7.78-17.53,17.29-17.53h69.14c1.39-12.67,6.57-24.43,14.92-33.66,2.25-2.49,4.68-4.73,7.26-6.72h-106.22c-23.64,0-42.82,21.43-42.82,47.87v78.18c0,26.48,19.18,47.9,42.82,47.9h106.22c-2.59-1.99-5.02-4.23-7.27-6.72Z"/>
    <path class="cls-1" d="M500.91,224.88v65.77c0,9.52-7.77,17.34-17.29,17.34h-21.66s-17.89-31.77-17.89-31.77h-45.58l17.89,31.75h-46.59c-9.52-.01-17.29-7.81-17.29-17.32v-58.6c0-9.52,7.77-17.34,17.29-17.34l96.78.02v-40.19h-111.53c-23.64,0-42.83,21.19-42.83,47.35v79.21c0,26.19,19.18,47.38,42.83,47.38h143.63c23.64,0,42.83-21.2,42.83-47.35v-76.26c-17.38,0-29.42,0-40.59,0Z"/>
    <polygon class="cls-1" points="667.52 174.54 667.52 214.67 592.33 214.67 592.33 348.49 551.79 348.49 551.79 214.67 476.4 214.67 476.4 174.54 667.52 174.54"/>
  </g>
</svg>